999
FreeCAD v2022.709 28846 (Git)
  0
SECTION
  2
HEADER
  9
$ACADVER
  1
AC1014
  9
$ACADMAINTVER
 70
     9
  9
$DWGCODEPAGE
  3
ANSI_1252
  9
$TEXTSTYLE
  7
STANDARD
  9
$DIMSTYLE
  2
STANDARD
  9
$DIMTXSTY
  7
STANDARD
  9
$CMLSTYLE
  2
STANDARD
  9
$PEXTMAX
 10
50
 20
50
 30
50
  9
$PEXTMIN
 10
0
 20
0
 30
0
  9
$HANDSEED
  5
FFFF
  0
ENDSEC
  0
SECTION
  2
CLASSES
  0
CLASS
  1
ACDBDICTIONARYWDFLT
  2
AcDbDictionaryWithDefault
  3
ObjectDBX Classes
 90
        0
280
     0
281
     0
  0
CLASS
  1
XRECORD
  2
AcDbXrecord
  3
ObjectDBX Classes
 90
        0
280
     0
281
     0
  0
CLASS
  1
LWPOLYLINE
  2
AcDbPolyline
  3
ObjectDBX Classes
 90
        0
280
     0
281
     1
  0
ENDSEC
  0
SECTION
  2
TABLES
  0
TABLE
  2
VPORT
  5
20
330
0
100
AcDbSymbolTable
 70
     1
  0
VPORT
  5
21
330
20
100
AcDbSymbolTableRecord
100
AcDbViewportTableRecord
  2
*ACTIVE
 70
     0
  0
ENDTAB
  0
TABLE
  2
LTYPE
  5
22
330
0
100
AcDbSymbolTable
 70
     1
  0
LTYPE
  5
23
330
21
100
AcDbSymbolTableRecord
100
AcDbLinetypeTableRecord
  2
BYBLOCK
 70
     0
  3

 72
    65
 73
     0
 40
0.0
  0
LTYPE
  5
24
330
21
100
AcDbSymbolTableRecord
100
AcDbLinetypeTableRecord
  2
BYLAYER
 70
     0
  3

 72
    65
 73
     0
 40
0.0
  0
LTYPE
  5
25
330
21
100
AcDbSymbolTableRecord
100
AcDbLinetypeTableRecord
  2
CONTINUOUS
 70
     0
  3
Solid line
 72
    65
 73
     0
 40
0.0
  0
ENDTAB
  0
TABLE
  2
LAYER
  5
AB0
330
0
100
AcDbSymbolTable
 70
3
  0
LAYER
  5
AB1
330
AB0
100
AcDbSymbolTableRecord
100
AcDbLayerTableRecord
  2
0
 70
   0
 62
   7
  6
CONTINUOUS
  0
LAYER
  5
AB2
330
AB0
100
AcDbSymbolTableRecord
100
AcDbLayerTableRecord
  2
none
 70
    0
 62
    7
  6
CONTINUOUS
  0
LAYER
  5
AB3
330
AB0
100
AcDbSymbolTableRecord
100
AcDbLayerTableRecord
  2
Shape2DView
 70
    0
 62
    7
  6
CONTINUOUS
  0
ENDTAB
  0
TABLE
  2
STYLE
  5
70
330
0
100
AcDbSymbolTable
 70
     2
  0
STYLE
  5
71
330
70
100
AcDbSymbolTableRecord
100
AcDbTextStyleTableRecord
  2
STANDARD
 70
     0
 40
0.0
 41
1.0
 50
0.0
 71
     0
 42
2.5
  3
arial.ttf
  4

  0
STYLE
  5
72
330
70
100
AcDbSymbolTableRecord
100
AcDbTextStyleTableRecord
  2
ANNOTATIVE
 70
     0
 40
0.0
 41
1.0
 50
0.0
 71
     0
 42
2.5
  3
arial.ttf
  4

  0
ENDTAB
  0
TABLE
  2
VIEW
  5
73
330
0
100
AcDbSymbolTable
 70
     0
  0
ENDTAB
  0
TABLE
  2
UCS
  5
74
330
0
100
AcDbSymbolTable
 70
     0
  0
ENDTAB
  0
TABLE
  2
APPID
  5
75
330
0
100
AcDbSymbolTable
 70
     2
  0
APPID
  5
76
330
75
100
AcDbSymbolTableRecord
100
AcDbRegAppTableRecord
  2
ACAD
 70
     0
  0
APPID
  5
77
330
75
100
AcDbSymbolTableRecord
100
AcDbRegAppTableRecord
  2
ACADANNOTATIVE
 70
     0
  0
ENDTAB
  0
TABLE
  2
DIMSTYLE
  5
78
330
0
100
AcDbSymbolTable
 70
     2
  0
DIMSTYLE
105
79
330
78
100
AcDbSymbolTableRecord
100
AcDbDimStyleTableRecord
  2
STANDARD
 70
     0
  3

  4

  5

  6

  7

 40
0.0
 41
2.5
 42
0.625
 43
3.75
 44
1.25
 45
0.0
 46
0.0
 47
0.0
 48
0.0
140
2.5
141
2.5
142
0.0
143
0.03937007874016
144
1.0
145
0.0
146
1.0
147
0.625
 71
     0
 72
     0
 73
     0
 74
     0
 75
     0
 76
     0
 77
     1
 78
     8
170
     0
171
     3
172
     1
173
     0
174
     0
175
     0
176
     0
177
     0
178
     0
270
     2
271
     2
272
     2
273
     2
274
     3
340
71
275
     0
280
     0
281
     0
282
     0
283
     0
284
     8
285
     0
286
     0
287
     3
288
     0
  0
ENDTAB
  0
TABLE
  2
BLOCK_RECORD
  5
A01
330
0
100
AcDbSymbolTable
  70
5
  0
BLOCK_RECORD
  5
A02
330
A01
100
AcDbSymbolTableRecord
100
AcDbBlockTableRecord
  2
*MODEL_SPACE
  0
BLOCK_RECORD
  5
A03
330
A01
100
AcDbSymbolTableRecord
100
AcDbBlockTableRecord
  2
*PAPER_SPACE
  0
ENDTAB
  0
ENDSEC
  0
SECTION
  2
BLOCKS
  0
BLOCK
  5
A04
330
A02
100
AcDbEntity
  8
0
100
AcDbBlockBegin
  2
*MODEL_SPACE
 70
   0
 10
0
 20
0
 30
0
  3
*MODEL_SPACE
  1
 
  0
ENDBLK
  5
A05
330
A02
100
AcDbEntity
  8
0
100
AcDbBlockEnd
  0
BLOCK
  5
A06
330
A03
100
AcDbEntity
 67
1
  8
0
100
AcDbBlockBegin
  2
*PAPER_SPACE
 70
   0
 10
0
 20
0
 30
0
  3
*PAPER_SPACE
  1
 
  0
ENDBLK
  5
A07
330
A03
100
AcDbEntity
 67
    1
  8
0
100
AcDbBlockEnd
  0
ENDSEC
  0
SECTION
  2
ENTITIES
  0
LINE
  5
A08
330
A02
100
AcDbEntity
  8
Shape2DView
100
AcDbLine
 10
22.4375
 20
1.77636e-15
 30
0
 11
22.4375
 21
0.875
 31
0
  0
LINE
  5
A09
330
A02
100
AcDbEntity
  8
Shape2DView
100
AcDbLine
 10
22.4375
 20
0.875
 30
0
 11
7.5625
 21
0.875
 31
0
  0
LINE
  5
A0A
330
A02
100
AcDbEntity
  8
Shape2DView
100
AcDbLine
 10
0
 20
0
 30
0
 11
7.5625
 21
0
 31
0
  0
LINE
  5
A0B
330
A02
100
AcDbEntity
  8
Shape2DView
100
AcDbLine
 10
7.5625
 20
0.875
 30
0
 11
7.5625
 21
0
 31
0
  0
LINE
  5
A0C
330
A02
100
AcDbEntity
  8
Shape2DView
100
AcDbLine
 10
0
 20
7.5625
 30
0
 11
0
 21
0
 31
0
  0
LINE
  5
A0D
330
A02
100
AcDbEntity
  8
Shape2DView
100
AcDbLine
 10
0
 20
7.5625
 30
0
 11
0.875
 21
7.5625
 31
0
  0
LINE
  5
A0E
330
A02
100
AcDbEntity
  8
Shape2DView
100
AcDbLine
 10
0.875
 20
7.5625
 30
0
 11
0.875
 21
22.4375
 31
0
  0
LINE
  5
A0F
330
A02
100
AcDbEntity
  8
Shape2DView
100
AcDbLine
 10
0.875
 20
22.4375
 30
0
 11
0
 21
22.4375
 31
0
  0
LINE
  5
A10
330
A02
100
AcDbEntity
  8
Shape2DView
100
AcDbLine
 10
22.4375
 20
0
 30
0
 11
37.5625
 21
0
 31
0
  0
LINE
  5
A11
330
A02
100
AcDbEntity
  8
Shape2DView
100
AcDbLine
 10
52.4375
 20
1.77636e-15
 30
0
 11
52.4375
 21
0.875
 31
0
  0
LINE
  5
A12
330
A02
100
AcDbEntity
  8
Shape2DView
100
AcDbLine
 10
52.4375
 20
0.875
 30
0
 11
37.5625
 21
0.875
 31
0
  0
LINE
  5
A13
330
A02
100
AcDbEntity
  8
Shape2DView
100
AcDbLine
 10
37.5625
 20
0.875
 30
0
 11
37.5625
 21
0
 31
0
  0
LINE
  5
A14
330
A02
100
AcDbEntity
  8
Shape2DView
100
AcDbLine
 10
52.4375
 20
0
 30
0
 11
67.5625
 21
0
 31
0
  0
LINE
  5
A15
330
A02
100
AcDbEntity
  8
Shape2DView
100
AcDbLine
 10
90
 20
22.4375
 30
0
 11
89.125
 21
22.4375
 31
0
  0
LINE
  5
A16
330
A02
100
AcDbEntity
  8
Shape2DView
100
AcDbLine
 10
89.125
 20
22.4375
 30
0
 11
89.125
 21
7.5625
 31
0
  0
LINE
  5
A17
330
A02
100
AcDbEntity
  8
Shape2DView
100
AcDbLine
 10
89.125
 20
7.5625
 30
0
 11
90
 21
7.5625
 31
0
  0
LINE
  5
A18
330
A02
100
AcDbEntity
  8
Shape2DView
100
AcDbLine
 10
90
 20
0
 30
0
 11
90
 21
7.5625
 31
0
  0
LINE
  5
A19
330
A02
100
AcDbEntity
  8
Shape2DView
100
AcDbLine
 10
82.4375
 20
0
 30
0
 11
90
 21
0
 31
0
  0
LINE
  5
A1A
330
A02
100
AcDbEntity
  8
Shape2DView
100
AcDbLine
 10
82.4375
 20
1.77636e-15
 30
0
 11
82.4375
 21
0.875
 31
0
  0
LINE
  5
A1B
330
A02
100
AcDbEntity
  8
Shape2DView
100
AcDbLine
 10
82.4375
 20
0.875
 30
0
 11
67.5625
 21
0.875
 31
0
  0
LINE
  5
A1C
330
A02
100
AcDbEntity
  8
Shape2DView
100
AcDbLine
 10
67.5625
 20
0.875
 30
0
 11
67.5625
 21
0
 31
0
  0
LINE
  5
A1D
330
A02
100
AcDbEntity
  8
Shape2DView
100
AcDbLine
 10
90
 20
22.4375
 30
0
 11
90
 21
37.5625
 31
0
  0
LINE
  5
A1E
330
A02
100
AcDbEntity
  8
Shape2DView
100
AcDbLine
 10
89.125
 20
37.5625
 30
0
 11
90
 21
37.5625
 31
0
  0
LINE
  5
A1F
330
A02
100
AcDbEntity
  8
Shape2DView
100
AcDbLine
 10
89.125
 20
52.4375
 30
0
 11
89.125
 21
37.5625
 31
0
  0
LINE
  5
A20
330
A02
100
AcDbEntity
  8
Shape2DView
100
AcDbLine
 10
90
 20
52.4375
 30
0
 11
89.125
 21
52.4375
 31
0
  0
LINE
  5
A21
330
A02
100
AcDbEntity
  8
Shape2DView
100
AcDbLine
 10
90
 20
52.4375
 30
0
 11
90
 21
60
 31
0
  0
LINE
  5
A22
330
A02
100
AcDbEntity
  8
Shape2DView
100
AcDbLine
 10
90
 20
60
 30
0
 11
82.4375
 21
60
 31
0
  0
LINE
  5
A23
330
A02
100
AcDbEntity
  8
Shape2DView
100
AcDbLine
 10
82.4375
 20
59.125
 30
0
 11
82.4375
 21
60
 31
0
  0
LINE
  5
A24
330
A02
100
AcDbEntity
  8
Shape2DView
100
AcDbLine
 10
67.5625
 20
59.125
 30
0
 11
82.4375
 21
59.125
 31
0
  0
LINE
  5
A25
330
A02
100
AcDbEntity
  8
Shape2DView
100
AcDbLine
 10
67.5625
 20
60
 30
0
 11
67.5625
 21
59.125
 31
0
  0
LINE
  5
A26
330
A02
100
AcDbEntity
  8
Shape2DView
100
AcDbLine
 10
67.5625
 20
60
 30
0
 11
52.4375
 21
60
 31
0
  0
LINE
  5
A27
330
A02
100
AcDbEntity
  8
Shape2DView
100
AcDbLine
 10
52.4375
 20
59.125
 30
0
 11
52.4375
 21
60
 31
0
  0
LINE
  5
A28
330
A02
100
AcDbEntity
  8
Shape2DView
100
AcDbLine
 10
37.5625
 20
59.125
 30
0
 11
52.4375
 21
59.125
 31
0
  0
LINE
  5
A29
330
A02
100
AcDbEntity
  8
Shape2DView
100
AcDbLine
 10
37.5625
 20
60
 30
0
 11
37.5625
 21
59.125
 31
0
  0
LINE
  5
A2A
330
A02
100
AcDbEntity
  8
Shape2DView
100
AcDbLine
 10
37.5625
 20
60
 30
0
 11
22.4375
 21
60
 31
0
  0
LINE
  5
A2B
330
A02
100
AcDbEntity
  8
Shape2DView
100
AcDbLine
 10
22.4375
 20
59.125
 30
0
 11
22.4375
 21
60
 31
0
  0
LINE
  5
A2C
330
A02
100
AcDbEntity
  8
Shape2DView
100
AcDbLine
 10
7.5625
 20
59.125
 30
0
 11
22.4375
 21
59.125
 31
0
  0
LINE
  5
A2D
330
A02
100
AcDbEntity
  8
Shape2DView
100
AcDbLine
 10
7.5625
 20
60
 30
0
 11
7.5625
 21
59.125
 31
0
  0
LINE
  5
A2E
330
A02
100
AcDbEntity
  8
Shape2DView
100
AcDbLine
 10
7.5625
 20
60
 30
0
 11
0
 21
60
 31
0
  0
LINE
  5
A2F
330
A02
100
AcDbEntity
  8
Shape2DView
100
AcDbLine
 10
0
 20
60
 30
0
 11
0
 21
52.4375
 31
0
  0
LINE
  5
A30
330
A02
100
AcDbEntity
  8
Shape2DView
100
AcDbLine
 10
0.875
 20
52.4375
 30
0
 11
0
 21
52.4375
 31
0
  0
LINE
  5
A31
330
A02
100
AcDbEntity
  8
Shape2DView
100
AcDbLine
 10
0.875
 20
37.5625
 30
0
 11
0.875
 21
52.4375
 31
0
  0
LINE
  5
A32
330
A02
100
AcDbEntity
  8
Shape2DView
100
AcDbLine
 10
0
 20
37.5625
 30
0
 11
0.875
 21
37.5625
 31
0
  0
LINE
  5
A33
330
A02
100
AcDbEntity
  8
Shape2DView
100
AcDbLine
 10
0
 20
37.5625
 30
0
 11
0
 21
22.4375
 31
0
  0
LINE
  5
A34
330
A02
100
AcDbEntity
  8
Shape2DView
100
AcDbLine
 10
7.5625
 20
30.875
 30
0
 11
7.5625
 21
29.125
 31
0
  0
LINE
  5
A35
330
A02
100
AcDbEntity
  8
Shape2DView
100
AcDbLine
 10
22.4375
 20
30.875
 30
0
 11
7.5625
 21
30.875
 31
0
  0
LINE
  5
A36
330
A02
100
AcDbEntity
  8
Shape2DView
100
AcDbLine
 10
22.4375
 20
29.125
 30
0
 11
22.4375
 21
30.875
 31
0
  0
LINE
  5
A37
330
A02
100
AcDbEntity
  8
Shape2DView
100
AcDbLine
 10
7.5625
 20
29.125
 30
0
 11
22.4375
 21
29.125
 31
0
  0
LINE
  5
A38
330
A02
100
AcDbEntity
  8
Shape2DView
100
AcDbLine
 10
30.875
 20
22.4375
 30
0
 11
29.125
 21
22.4375
 31
0
  0
LINE
  5
A39
330
A02
100
AcDbEntity
  8
Shape2DView
100
AcDbLine
 10
30.875
 20
7.5625
 30
0
 11
30.875
 21
22.4375
 31
0
  0
LINE
  5
A3A
330
A02
100
AcDbEntity
  8
Shape2DView
100
AcDbLine
 10
29.125
 20
7.5625
 30
0
 11
30.875
 21
7.5625
 31
0
  0
LINE
  5
A3B
330
A02
100
AcDbEntity
  8
Shape2DView
100
AcDbLine
 10
29.125
 20
22.4375
 30
0
 11
29.125
 21
7.5625
 31
0
  0
LINE
  5
A3C
330
A02
100
AcDbEntity
  8
Shape2DView
100
AcDbLine
 10
67.5625
 20
30.875
 30
0
 11
67.5625
 21
29.125
 31
0
  0
LINE
  5
A3D
330
A02
100
AcDbEntity
  8
Shape2DView
100
AcDbLine
 10
82.4375
 20
30.875
 30
0
 11
67.5625
 21
30.875
 31
0
  0
LINE
  5
A3E
330
A02
100
AcDbEntity
  8
Shape2DView
100
AcDbLine
 10
82.4375
 20
29.125
 30
0
 11
82.4375
 21
30.875
 31
0
  0
LINE
  5
A3F
330
A02
100
AcDbEntity
  8
Shape2DView
100
AcDbLine
 10
67.5625
 20
29.125
 30
0
 11
82.4375
 21
29.125
 31
0
  0
LINE
  5
A40
330
A02
100
AcDbEntity
  8
Shape2DView
100
AcDbLine
 10
60.875
 20
22.4375
 30
0
 11
59.125
 21
22.4375
 31
0
  0
LINE
  5
A41
330
A02
100
AcDbEntity
  8
Shape2DView
100
AcDbLine
 10
60.875
 20
7.5625
 30
0
 11
60.875
 21
22.4375
 31
0
  0
LINE
  5
A42
330
A02
100
AcDbEntity
  8
Shape2DView
100
AcDbLine
 10
59.125
 20
7.5625
 30
0
 11
60.875
 21
7.5625
 31
0
  0
LINE
  5
A43
330
A02
100
AcDbEntity
  8
Shape2DView
100
AcDbLine
 10
59.125
 20
22.4375
 30
0
 11
59.125
 21
7.5625
 31
0
  0
LINE
  5
A44
330
A02
100
AcDbEntity
  8
Shape2DView
100
AcDbLine
 10
30.875
 20
52.4375
 30
0
 11
29.125
 21
52.4375
 31
0
  0
LINE
  5
A45
330
A02
100
AcDbEntity
  8
Shape2DView
100
AcDbLine
 10
30.875
 20
37.5625
 30
0
 11
30.875
 21
52.4375
 31
0
  0
LINE
  5
A46
330
A02
100
AcDbEntity
  8
Shape2DView
100
AcDbLine
 10
29.125
 20
37.5625
 30
0
 11
30.875
 21
37.5625
 31
0
  0
LINE
  5
A47
330
A02
100
AcDbEntity
  8
Shape2DView
100
AcDbLine
 10
29.125
 20
52.4375
 30
0
 11
29.125
 21
37.5625
 31
0
  0
LINE
  5
A48
330
A02
100
AcDbEntity
  8
Shape2DView
100
AcDbLine
 10
52.4375
 20
29.125
 30
0
 11
52.4375
 21
30.875
 31
0
  0
LINE
  5
A49
330
A02
100
AcDbEntity
  8
Shape2DView
100
AcDbLine
 10
37.5625
 20
29.125
 30
0
 11
52.4375
 21
29.125
 31
0
  0
LINE
  5
A4A
330
A02
100
AcDbEntity
  8
Shape2DView
100
AcDbLine
 10
37.5625
 20
30.875
 30
0
 11
37.5625
 21
29.125
 31
0
  0
LINE
  5
A4B
330
A02
100
AcDbEntity
  8
Shape2DView
100
AcDbLine
 10
52.4375
 20
30.875
 30
0
 11
37.5625
 21
30.875
 31
0
  0
LINE
  5
A4C
330
A02
100
AcDbEntity
  8
Shape2DView
100
AcDbLine
 10
60.875
 20
52.4375
 30
0
 11
59.125
 21
52.4375
 31
0
  0
LINE
  5
A4D
330
A02
100
AcDbEntity
  8
Shape2DView
100
AcDbLine
 10
60.875
 20
37.5625
 30
0
 11
60.875
 21
52.4375
 31
0
  0
LINE
  5
A4E
330
A02
100
AcDbEntity
  8
Shape2DView
100
AcDbLine
 10
59.125
 20
37.5625
 30
0
 11
60.875
 21
37.5625
 31
0
  0
LINE
  5
A4F
330
A02
100
AcDbEntity
  8
Shape2DView
100
AcDbLine
 10
59.125
 20
52.4375
 30
0
 11
59.125
 21
37.5625
 31
0
  0
ARC
  5
A50
330
A02
100
AcDbEntity
  8
Shape2DView
100
AcDbCircle
 10
45
 20
45
 30
0
 40
9.975
100
AcDbArc
 50
95.7536
 51
174.246
  0
LINE
  5
A51
330
A02
100
AcDbEntity
  8
Shape2DView
100
AcDbLine
 10
35.025
 20
46
 30
0
 11
35.0753
 21
46
 31
0
  0
ARC
  5
A52
330
A02
100
AcDbEntity
  8
Shape2DView
100
AcDbCircle
 10
45
 20
45
 30
0
 40
10.025
100
AcDbArc
 50
95.7248
 51
174.275
  0
LINE
  5
A53
330
A02
100
AcDbEntity
  8
Shape2DView
100
AcDbLine
 10
44
 20
54.975
 30
0
 11
44
 21
54.9247
 31
0
  0
ARC
  5
A54
330
A02
100
AcDbEntity
  8
Shape2DView
100
AcDbCircle
 10
45
 20
15
 30
0
 40
9.975
100
AcDbArc
 50
95.7536
 51
174.246
  0
LINE
  5
A55
330
A02
100
AcDbEntity
  8
Shape2DView
100
AcDbLine
 10
35.025
 20
16
 30
0
 11
35.0753
 21
16
 31
0
  0
ARC
  5
A56
330
A02
100
AcDbEntity
  8
Shape2DView
100
AcDbCircle
 10
45
 20
15
 30
0
 40
10.025
100
AcDbArc
 50
95.7248
 51
174.275
  0
LINE
  5
A57
330
A02
100
AcDbEntity
  8
Shape2DView
100
AcDbLine
 10
44
 20
24.975
 30
0
 11
44
 21
24.9247
 31
0
  0
ARC
  5
A58
330
A02
100
AcDbEntity
  8
Shape2DView
100
AcDbCircle
 10
45
 20
15
 30
0
 40
9.975
100
AcDbArc
 50
-84.2464
 51
-5.7536
  0
LINE
  5
A59
330
A02
100
AcDbEntity
  8
Shape2DView
100
AcDbLine
 10
54.975
 20
14
 30
0
 11
54.9247
 21
14
 31
0
  0
ARC
  5
A5A
330
A02
100
AcDbEntity
  8
Shape2DView
100
AcDbCircle
 10
45
 20
15
 30
0
 40
10.025
100
AcDbArc
 50
-84.2752
 51
-5.72481
  0
LINE
  5
A5B
330
A02
100
AcDbEntity
  8
Shape2DView
100
AcDbLine
 10
46
 20
5.025
 30
0
 11
46
 21
5.07525
 31
0
  0
ARC
  5
A5C
330
A02
100
AcDbEntity
  8
Shape2DView
100
AcDbCircle
 10
45
 20
45
 30
0
 40
9.975
100
AcDbArc
 50
5.7536
 51
84.2464
  0
LINE
  5
A5D
330
A02
100
AcDbEntity
  8
Shape2DView
100
AcDbLine
 10
46
 20
54.975
 30
0
 11
46
 21
54.9247
 31
0
  0
ARC
  5
A5E
330
A02
100
AcDbEntity
  8
Shape2DView
100
AcDbCircle
 10
45
 20
45
 30
0
 40
10.025
100
AcDbArc
 50
5.72481
 51
84.2752
  0
LINE
  5
A5F
330
A02
100
AcDbEntity
  8
Shape2DView
100
AcDbLine
 10
54.975
 20
46
 30
0
 11
54.9247
 21
46
 31
0
  0
ARC
  5
A60
330
A02
100
AcDbEntity
  8
Shape2DView
100
AcDbCircle
 10
45
 20
45
 30
0
 40
9.975
100
AcDbArc
 50
-84.2464
 51
-5.7536
  0
LINE
  5
A61
330
A02
100
AcDbEntity
  8
Shape2DView
100
AcDbLine
 10
54.975
 20
44
 30
0
 11
54.9247
 21
44
 31
0
  0
ARC
  5
A62
330
A02
100
AcDbEntity
  8
Shape2DView
100
AcDbCircle
 10
45
 20
45
 30
0
 40
10.025
100
AcDbArc
 50
-84.2752
 51
-5.72481
  0
LINE
  5
A63
330
A02
100
AcDbEntity
  8
Shape2DView
100
AcDbLine
 10
46
 20
35.025
 30
0
 11
46
 21
35.0753
 31
0
  0
ARC
  5
A64
330
A02
100
AcDbEntity
  8
Shape2DView
100
AcDbCircle
 10
45
 20
45
 30
0
 40
9.975
100
AcDbArc
 50
-174.246
 51
-95.7536
  0
LINE
  5
A65
330
A02
100
AcDbEntity
  8
Shape2DView
100
AcDbLine
 10
44
 20
35.025
 30
0
 11
44
 21
35.0753
 31
0
  0
ARC
  5
A66
330
A02
100
AcDbEntity
  8
Shape2DView
100
AcDbCircle
 10
45
 20
45
 30
0
 40
10.025
100
AcDbArc
 50
-174.275
 51
-95.7248
  0
LINE
  5
A67
330
A02
100
AcDbEntity
  8
Shape2DView
100
AcDbLine
 10
35.025
 20
44
 30
0
 11
35.0753
 21
44
 31
0
  0
ARC
  5
A68
330
A02
100
AcDbEntity
  8
Shape2DView
100
AcDbCircle
 10
15
 20
45
 30
0
 40
9.975
100
AcDbArc
 50
-84.2464
 51
-5.7536
  0
LINE
  5
A69
330
A02
100
AcDbEntity
  8
Shape2DView
100
AcDbLine
 10
24.975
 20
44
 30
0
 11
24.9247
 21
44
 31
0
  0
ARC
  5
A6A
330
A02
100
AcDbEntity
  8
Shape2DView
100
AcDbCircle
 10
15
 20
45
 30
0
 40
10.025
100
AcDbArc
 50
-84.2752
 51
-5.72481
  0
LINE
  5
A6B
330
A02
100
AcDbEntity
  8
Shape2DView
100
AcDbLine
 10
16
 20
35.025
 30
0
 11
16
 21
35.0753
 31
0
  0
ARC
  5
A6C
330
A02
100
AcDbEntity
  8
Shape2DView
100
AcDbCircle
 10
15
 20
15
 30
0
 40
9.975
100
AcDbArc
 50
-84.2464
 51
-5.7536
  0
LINE
  5
A6D
330
A02
100
AcDbEntity
  8
Shape2DView
100
AcDbLine
 10
24.975
 20
14
 30
0
 11
24.9247
 21
14
 31
0
  0
ARC
  5
A6E
330
A02
100
AcDbEntity
  8
Shape2DView
100
AcDbCircle
 10
15
 20
15
 30
0
 40
10.025
100
AcDbArc
 50
-84.2752
 51
-5.72481
  0
LINE
  5
A6F
330
A02
100
AcDbEntity
  8
Shape2DView
100
AcDbLine
 10
16
 20
5.025
 30
0
 11
16
 21
5.07525
 31
0
  0
ARC
  5
A70
330
A02
100
AcDbEntity
  8
Shape2DView
100
AcDbCircle
 10
15
 20
45
 30
0
 40
9.975
100
AcDbArc
 50
5.7536
 51
84.2464
  0
LINE
  5
A71
330
A02
100
AcDbEntity
  8
Shape2DView
100
AcDbLine
 10
16
 20
54.975
 30
0
 11
16
 21
54.9247
 31
0
  0
ARC
  5
A72
330
A02
100
AcDbEntity
  8
Shape2DView
100
AcDbCircle
 10
15
 20
45
 30
0
 40
10.025
100
AcDbArc
 50
5.72481
 51
84.2752
  0
LINE
  5
A73
330
A02
100
AcDbEntity
  8
Shape2DView
100
AcDbLine
 10
24.975
 20
46
 30
0
 11
24.9247
 21
46
 31
0
  0
ARC
  5
A74
330
A02
100
AcDbEntity
  8
Shape2DView
100
AcDbCircle
 10
15
 20
45
 30
0
 40
9.975
100
AcDbArc
 50
95.7536
 51
174.246
  0
LINE
  5
A75
330
A02
100
AcDbEntity
  8
Shape2DView
100
AcDbLine
 10
5.025
 20
46
 30
0
 11
5.07525
 21
46
 31
0
  0
ARC
  5
A76
330
A02
100
AcDbEntity
  8
Shape2DView
100
AcDbCircle
 10
15
 20
45
 30
0
 40
10.025
100
AcDbArc
 50
95.7248
 51
174.275
  0
LINE
  5
A77
330
A02
100
AcDbEntity
  8
Shape2DView
100
AcDbLine
 10
14
 20
54.975
 30
0
 11
14
 21
54.9247
 31
0
  0
ARC
  5
A78
330
A02
100
AcDbEntity
  8
Shape2DView
100
AcDbCircle
 10
15
 20
45
 30
0
 40
9.975
100
AcDbArc
 50
-174.246
 51
-95.7536
  0
LINE
  5
A79
330
A02
100
AcDbEntity
  8
Shape2DView
100
AcDbLine
 10
14
 20
35.025
 30
0
 11
14
 21
35.0753
 31
0
  0
ARC
  5
A7A
330
A02
100
AcDbEntity
  8
Shape2DView
100
AcDbCircle
 10
15
 20
45
 30
0
 40
10.025
100
AcDbArc
 50
-174.275
 51
-95.7248
  0
LINE
  5
A7B
330
A02
100
AcDbEntity
  8
Shape2DView
100
AcDbLine
 10
5.025
 20
44
 30
0
 11
5.07525
 21
44
 31
0
  0
ARC
  5
A7C
330
A02
100
AcDbEntity
  8
Shape2DView
100
AcDbCircle
 10
15
 20
15
 30
0
 40
9.975
100
AcDbArc
 50
5.7536
 51
84.2464
  0
LINE
  5
A7D
330
A02
100
AcDbEntity
  8
Shape2DView
100
AcDbLine
 10
16
 20
24.975
 30
0
 11
16
 21
24.9247
 31
0
  0
ARC
  5
A7E
330
A02
100
AcDbEntity
  8
Shape2DView
100
AcDbCircle
 10
15
 20
15
 30
0
 40
10.025
100
AcDbArc
 50
5.72481
 51
84.2752
  0
LINE
  5
A7F
330
A02
100
AcDbEntity
  8
Shape2DView
100
AcDbLine
 10
24.975
 20
16
 30
0
 11
24.9247
 21
16
 31
0
  0
ARC
  5
A80
330
A02
100
AcDbEntity
  8
Shape2DView
100
AcDbCircle
 10
45
 20
15
 30
0
 40
9.975
100
AcDbArc
 50
-174.246
 51
-95.7536
  0
LINE
  5
A81
330
A02
100
AcDbEntity
  8
Shape2DView
100
AcDbLine
 10
44
 20
5.025
 30
0
 11
44
 21
5.07525
 31
0
  0
ARC
  5
A82
330
A02
100
AcDbEntity
  8
Shape2DView
100
AcDbCircle
 10
45
 20
15
 30
0
 40
10.025
100
AcDbArc
 50
-174.275
 51
-95.7248
  0
LINE
  5
A83
330
A02
100
AcDbEntity
  8
Shape2DView
100
AcDbLine
 10
35.025
 20
14
 30
0
 11
35.0753
 21
14
 31
0
  0
ARC
  5
A84
330
A02
100
AcDbEntity
  8
Shape2DView
100
AcDbCircle
 10
15
 20
15
 30
0
 40
9.975
100
AcDbArc
 50
95.7536
 51
174.246
  0
LINE
  5
A85
330
A02
100
AcDbEntity
  8
Shape2DView
100
AcDbLine
 10
5.025
 20
16
 30
0
 11
5.07525
 21
16
 31
0
  0
ARC
  5
A86
330
A02
100
AcDbEntity
  8
Shape2DView
100
AcDbCircle
 10
15
 20
15
 30
0
 40
10.025
100
AcDbArc
 50
95.7248
 51
174.275
  0
LINE
  5
A87
330
A02
100
AcDbEntity
  8
Shape2DView
100
AcDbLine
 10
14
 20
24.975
 30
0
 11
14
 21
24.9247
 31
0
  0
ARC
  5
A88
330
A02
100
AcDbEntity
  8
Shape2DView
100
AcDbCircle
 10
45
 20
15
 30
0
 40
9.975
100
AcDbArc
 50
5.7536
 51
84.2464
  0
LINE
  5
A89
330
A02
100
AcDbEntity
  8
Shape2DView
100
AcDbLine
 10
46
 20
24.975
 30
0
 11
46
 21
24.9247
 31
0
  0
ARC
  5
A8A
330
A02
100
AcDbEntity
  8
Shape2DView
100
AcDbCircle
 10
45
 20
15
 30
0
 40
10.025
100
AcDbArc
 50
5.72481
 51
84.2752
  0
LINE
  5
A8B
330
A02
100
AcDbEntity
  8
Shape2DView
100
AcDbLine
 10
54.975
 20
16
 30
0
 11
54.9247
 21
16
 31
0
  0
ARC
  5
A8C
330
A02
100
AcDbEntity
  8
Shape2DView
100
AcDbCircle
 10
15
 20
15
 30
0
 40
9.975
100
AcDbArc
 50
-174.246
 51
-95.7536
  0
LINE
  5
A8D
330
A02
100
AcDbEntity
  8
Shape2DView
100
AcDbLine
 10
14
 20
5.025
 30
0
 11
14
 21
5.07525
 31
0
  0
ARC
  5
A8E
330
A02
100
AcDbEntity
  8
Shape2DView
100
AcDbCircle
 10
15
 20
15
 30
0
 40
10.025
100
AcDbArc
 50
-174.275
 51
-95.7248
  0
LINE
  5
A8F
330
A02
100
AcDbEntity
  8
Shape2DView
100
AcDbLine
 10
5.025
 20
14
 30
0
 11
5.07525
 21
14
 31
0
  0
ARC
  5
A90
330
A02
100
AcDbEntity
  8
Shape2DView
100
AcDbCircle
 10
75
 20
15
 30
0
 40
9.975
100
AcDbArc
 50
-84.2464
 51
-5.7536
  0
LINE
  5
A91
330
A02
100
AcDbEntity
  8
Shape2DView
100
AcDbLine
 10
84.975
 20
14
 30
0
 11
84.9247
 21
14
 31
0
  0
ARC
  5
A92
330
A02
100
AcDbEntity
  8
Shape2DView
100
AcDbCircle
 10
75
 20
15
 30
0
 40
10.025
100
AcDbArc
 50
-84.2752
 51
-5.72481
  0
LINE
  5
A93
330
A02
100
AcDbEntity
  8
Shape2DView
100
AcDbLine
 10
76
 20
5.025
 30
0
 11
76
 21
5.07525
 31
0
  0
ARC
  5
A94
330
A02
100
AcDbEntity
  8
Shape2DView
100
AcDbCircle
 10
75
 20
15
 30
0
 40
9.975
100
AcDbArc
 50
95.7536
 51
174.246
  0
LINE
  5
A95
330
A02
100
AcDbEntity
  8
Shape2DView
100
AcDbLine
 10
65.025
 20
16
 30
0
 11
65.0753
 21
16
 31
0
  0
ARC
  5
A96
330
A02
100
AcDbEntity
  8
Shape2DView
100
AcDbCircle
 10
75
 20
15
 30
0
 40
10.025
100
AcDbArc
 50
95.7248
 51
174.275
  0
LINE
  5
A97
330
A02
100
AcDbEntity
  8
Shape2DView
100
AcDbLine
 10
74
 20
24.975
 30
0
 11
74
 21
24.9247
 31
0
  0
ARC
  5
A98
330
A02
100
AcDbEntity
  8
Shape2DView
100
AcDbCircle
 10
75
 20
45
 30
0
 40
9.975
100
AcDbArc
 50
-174.246
 51
-95.7536
  0
LINE
  5
A99
330
A02
100
AcDbEntity
  8
Shape2DView
100
AcDbLine
 10
74
 20
35.025
 30
0
 11
74
 21
35.0753
 31
0
  0
ARC
  5
A9A
330
A02
100
AcDbEntity
  8
Shape2DView
100
AcDbCircle
 10
75
 20
45
 30
0
 40
10.025
100
AcDbArc
 50
-174.275
 51
-95.7248
  0
LINE
  5
A9B
330
A02
100
AcDbEntity
  8
Shape2DView
100
AcDbLine
 10
65.025
 20
44
 30
0
 11
65.0753
 21
44
 31
0
  0
ARC
  5
A9C
330
A02
100
AcDbEntity
  8
Shape2DView
100
AcDbCircle
 10
75
 20
45
 30
0
 40
9.975
100
AcDbArc
 50
-84.2464
 51
-5.7536
  0
LINE
  5
A9D
330
A02
100
AcDbEntity
  8
Shape2DView
100
AcDbLine
 10
84.975
 20
44
 30
0
 11
84.9247
 21
44
 31
0
  0
ARC
  5
A9E
330
A02
100
AcDbEntity
  8
Shape2DView
100
AcDbCircle
 10
75
 20
45
 30
0
 40
10.025
100
AcDbArc
 50
-84.2752
 51
-5.72481
  0
LINE
  5
A9F
330
A02
100
AcDbEntity
  8
Shape2DView
100
AcDbLine
 10
76
 20
35.025
 30
0
 11
76
 21
35.0753
 31
0
  0
ARC
  5
AA0
330
A02
100
AcDbEntity
  8
Shape2DView
100
AcDbCircle
 10
75
 20
45
 30
0
 40
9.975
100
AcDbArc
 50
95.7536
 51
174.246
  0
LINE
  5
AA1
330
A02
100
AcDbEntity
  8
Shape2DView
100
AcDbLine
 10
65.025
 20
46
 30
0
 11
65.0753
 21
46
 31
0
  0
ARC
  5
AA2
330
A02
100
AcDbEntity
  8
Shape2DView
100
AcDbCircle
 10
75
 20
45
 30
0
 40
10.025
100
AcDbArc
 50
95.7248
 51
174.275
  0
LINE
  5
AA3
330
A02
100
AcDbEntity
  8
Shape2DView
100
AcDbLine
 10
74
 20
54.975
 30
0
 11
74
 21
54.9247
 31
0
  0
ARC
  5
AA4
330
A02
100
AcDbEntity
  8
Shape2DView
100
AcDbCircle
 10
75
 20
45
 30
0
 40
9.975
100
AcDbArc
 50
5.7536
 51
84.2464
  0
LINE
  5
AA5
330
A02
100
AcDbEntity
  8
Shape2DView
100
AcDbLine
 10
76
 20
54.975
 30
0
 11
76
 21
54.9247
 31
0
  0
ARC
  5
AA6
330
A02
100
AcDbEntity
  8
Shape2DView
100
AcDbCircle
 10
75
 20
45
 30
0
 40
10.025
100
AcDbArc
 50
5.72481
 51
84.2752
  0
LINE
  5
AA7
330
A02
100
AcDbEntity
  8
Shape2DView
100
AcDbLine
 10
84.975
 20
46
 30
0
 11
84.9247
 21
46
 31
0
  0
ARC
  5
AA8
330
A02
100
AcDbEntity
  8
Shape2DView
100
AcDbCircle
 10
75
 20
15
 30
0
 40
9.975
100
AcDbArc
 50
-174.246
 51
-95.7536
  0
LINE
  5
AA9
330
A02
100
AcDbEntity
  8
Shape2DView
100
AcDbLine
 10
74
 20
5.025
 30
0
 11
74
 21
5.07525
 31
0
  0
ARC
  5
AAA
330
A02
100
AcDbEntity
  8
Shape2DView
100
AcDbCircle
 10
75
 20
15
 30
0
 40
10.025
100
AcDbArc
 50
-174.275
 51
-95.7248
  0
LINE
  5
AAB
330
A02
100
AcDbEntity
  8
Shape2DView
100
AcDbLine
 10
65.025
 20
14
 30
0
 11
65.0753
 21
14
 31
0
  0
ARC
  5
AAC
330
A02
100
AcDbEntity
  8
Shape2DView
100
AcDbCircle
 10
75
 20
15
 30
0
 40
9.975
100
AcDbArc
 50
5.7536
 51
84.2464
  0
LINE
  5
AAD
330
A02
100
AcDbEntity
  8
Shape2DView
100
AcDbLine
 10
76
 20
24.975
 30
0
 11
76
 21
24.9247
 31
0
  0
ARC
  5
AAE
330
A02
100
AcDbEntity
  8
Shape2DView
100
AcDbCircle
 10
75
 20
15
 30
0
 40
10.025
100
AcDbArc
 50
5.72481
 51
84.2752
  0
LINE
  5
AAF
330
A02
100
AcDbEntity
  8
Shape2DView
100
AcDbLine
 10
84.975
 20
16
 30
0
 11
84.9247
 21
16
 31
0
  0
ENDSEC
  0
SECTION
  2
OBJECTS
  0
DICTIONARY
  5
F000
330
0
100
AcDbDictionary
  3
ACAD_GROUP
350
F001
  0
DICTIONARY
  5
F001
330
F000
100
AcDbDictionary
  0
ENDSEC
  0
EOF